<svg width="25" height="24" viewBox="0 0 25 24" fill="none" xmlns="http://www.w3.org/2000/svg">
<ellipse cx="12.5" cy="12" rx="12.5" ry="12" fill="#00664E"/>
<g clip-path="url(#clip0_89_8414)">
<path d="M12.5 5C12.9148 5 13.25 5.33516 13.25 5.75V7.25H16.0625C16.9953 7.25 17.75 8.00469 17.75 8.9375V15.3125C17.75 16.2453 16.9953 17 16.0625 17H8.9375C8.00469 17 7.25 16.2453 7.25 15.3125V8.9375C7.25 8.00469 8.00469 7.25 8.9375 7.25H11.75V5.75C11.75 5.33516 12.0852 5 12.5 5ZM9.875 14C9.66875 14 9.5 14.1687 9.5 14.375C9.5 14.5813 9.66875 14.75 9.875 14.75H10.625C10.8313 14.75 11 14.5813 11 14.375C11 14.1687 10.8313 14 10.625 14H9.875ZM12.125 14C11.9187 14 11.75 14.1687 11.75 14.375C11.75 14.5813 11.9187 14.75 12.125 14.75H12.875C13.0813 14.75 13.25 14.5813 13.25 14.375C13.25 14.1687 13.0813 14 12.875 14H12.125ZM14.375 14C14.1687 14 14 14.1687 14 14.375C14 14.5813 14.1687 14.75 14.375 14.75H15.125C15.3313 14.75 15.5 14.5813 15.5 14.375C15.5 14.1687 15.3313 14 15.125 14H14.375ZM11.1875 11C11.1875 10.7514 11.0887 10.5129 10.9129 10.3371C10.7371 10.1613 10.4986 10.0625 10.25 10.0625C10.0014 10.0625 9.7629 10.1613 9.58709 10.3371C9.41127 10.5129 9.3125 10.7514 9.3125 11C9.3125 11.2486 9.41127 11.4871 9.58709 11.6629C9.7629 11.8387 10.0014 11.9375 10.25 11.9375C10.4986 11.9375 10.7371 11.8387 10.9129 11.6629C11.0887 11.4871 11.1875 11.2486 11.1875 11ZM14.75 11.9375C14.9986 11.9375 15.2371 11.8387 15.4129 11.6629C15.5887 11.4871 15.6875 11.2486 15.6875 11C15.6875 10.7514 15.5887 10.5129 15.4129 10.3371C15.2371 10.1613 14.9986 10.0625 14.75 10.0625C14.5014 10.0625 14.2629 10.1613 14.0871 10.3371C13.9113 10.5129 13.8125 10.7514 13.8125 11C13.8125 11.2486 13.9113 11.4871 14.0871 11.6629C14.2629 11.8387 14.5014 11.9375 14.75 11.9375ZM6.125 10.25H6.5V14.75H6.125C5.50391 14.75 5 14.2461 5 13.625V11.375C5 10.7539 5.50391 10.25 6.125 10.25ZM18.875 10.25C19.4961 10.25 20 10.7539 20 11.375V13.625C20 14.2461 19.4961 14.75 18.875 14.75H18.5V10.25H18.875Z" fill="white"/>
</g>
<defs>
<clipPath id="clip0_89_8414">
<path d="M5 5H20V17H5V5Z" fill="white"/>
</clipPath>
</defs>
</svg>
