<svg width="20" height="20" viewBox="0 0 20 20" fill="none" xmlns="http://www.w3.org/2000/svg">
<g clip-path="url(#clip0_1_16353)">
<path d="M9.60085 0C9.77335 0 9.94585 0.0375 10.1033 0.10875L17.1646 3.105C17.9896 3.45375 18.6046 4.2675 18.6008 5.25C18.5821 8.97 17.0521 15.7763 10.5908 18.87C9.9646 19.17 9.2371 19.17 8.61085 18.87C2.1496 15.7763 0.619597 8.97 0.600847 5.25C0.597097 4.2675 1.2121 3.45375 2.0371 3.105L9.1021 0.10875C9.25585 0.0375 9.42835 0 9.60085 0ZM9.60085 2.505V16.68C14.7758 14.175 16.1671 8.62875 16.2008 5.3025L9.60085 2.505Z" fill="#00664E"/>
</g>
<defs>
<clipPath id="clip0_1_16353">
<path d="M0 0H19.2V19.2H0V0Z" fill="white"/>
</clipPath>
</defs>
</svg>
