<svg width="507" height="320" viewBox="0 0 507 320" fill="none" xmlns="http://www.w3.org/2000/svg">
<g filter="url(#filter0_d_1_18191)">
<circle cx="254" cy="160" r="79" fill="#00664E"/>
<circle cx="254" cy="160" r="130" stroke="#00664E" stroke-width="2" stroke-dasharray="2 2"/>
<path d="M191.504 196.508C190.022 193.963 186.757 193.1 184.211 194.582C181.666 196.064 180.803 199.329 182.285 201.875C183.767 204.42 187.032 205.283 189.578 203.801C192.123 202.319 192.986 199.054 191.504 196.508ZM186.895 199.191L186.391 198.327L184.706 199.309L185.209 200.173L185.712 201.037L187.398 200.056L186.895 199.191ZM181.837 202.136L181.334 201.271L177.962 203.234L178.465 204.098L178.968 204.963L182.34 203L181.837 202.136ZM175.094 206.061L174.59 205.197L171.219 207.16L171.722 208.024L172.225 208.888L175.597 206.925L175.094 206.061ZM168.35 209.987L167.847 209.122L164.475 211.085L164.978 211.949L165.482 212.814L168.853 210.851L168.35 209.987ZM161.607 213.912L161.104 213.048L157.732 215.011L158.235 215.875L158.738 216.739L162.11 214.776L161.607 213.912ZM154.863 217.838L154.36 216.973L150.989 218.936L151.492 219.8L151.995 220.665L155.366 218.702L154.863 217.838ZM148.12 221.763L147.617 220.899L144.245 222.862L144.748 223.726L145.251 224.59L148.623 222.627L148.12 221.763ZM141.377 225.689L140.873 224.824L137.502 226.787L138.005 227.651L138.508 228.516L141.88 226.553L141.377 225.689ZM134.633 229.614L134.13 228.75L130.758 230.713L131.261 231.577L131.765 232.441L135.136 230.478L134.633 229.614ZM127.89 233.54L127.387 232.675L124.015 234.638L124.518 235.502L125.021 236.367L128.393 234.404L127.89 233.54ZM121.146 237.465L120.643 236.601L117.272 238.564L117.775 239.428L118.278 240.292L121.649 238.329L121.146 237.465ZM114.403 241.391L113.9 240.526L110.528 242.489L111.031 243.353L111.534 244.218L114.906 242.255L114.403 241.391ZM107.659 245.316L107.156 244.452L103.785 246.415L104.288 247.279L104.791 248.143L108.163 246.18L107.659 245.316ZM100.916 249.242L100.413 248.377L97.0413 250.34L97.5444 251.204L98.0475 252.069L101.419 250.106L100.916 249.242ZM94.1727 253.167L93.6696 252.303L90.2979 254.266L90.801 255.13L91.3041 255.994L94.6758 254.031L94.1727 253.167ZM87.4293 257.093L86.9262 256.228L83.5545 258.191L84.0576 259.055L84.5607 259.92L87.9324 257.957L87.4293 257.093ZM80.6859 261.018L80.1828 260.154L78.4969 261.135L79 262L79.5031 262.864L81.189 261.882L80.6859 261.018Z" fill="#00664E"/>
<path d="M317.391 196.317C318.873 193.771 322.138 192.909 324.683 194.391C327.229 195.873 328.091 199.138 326.609 201.683C325.127 204.229 321.862 205.091 319.317 203.609C316.771 202.127 315.909 198.862 317.391 196.317ZM322 199L322.503 198.136L324.189 199.117L323.686 199.981L323.183 200.846L321.497 199.864L322 199ZM327.058 201.944L327.561 201.08L330.932 203.043L330.429 203.907L329.926 204.771L326.554 202.808L327.058 201.944ZM333.801 205.87L334.304 205.005L337.676 206.968L337.173 207.832L336.67 208.697L333.298 206.734L333.801 205.87ZM340.544 209.795L341.047 208.931L344.419 210.894L343.916 211.758L343.413 212.622L340.041 210.659L340.544 209.795ZM347.288 213.721L347.791 212.856L351.163 214.819L350.659 215.683L350.156 216.548L346.785 214.585L347.288 213.721ZM354.031 217.646L354.534 216.782L357.906 218.745L357.403 219.609L356.9 220.473L353.528 218.51L354.031 217.646ZM360.775 221.572L361.278 220.707L364.649 222.67L364.146 223.534L363.643 224.399L360.272 222.436L360.775 221.572ZM367.518 225.497L368.021 224.633L371.393 226.596L370.89 227.46L370.387 228.324L367.015 226.361L367.518 225.497ZM374.261 229.423L374.764 228.558L378.136 230.521L377.633 231.385L377.13 232.25L373.758 230.287L374.261 229.423ZM381.005 233.348L381.508 232.484L384.88 234.447L384.377 235.311L383.873 236.175L380.502 234.212L381.005 233.348ZM387.748 237.274L388.251 236.409L391.623 238.372L391.12 239.236L390.617 240.101L387.245 238.138L387.748 237.274ZM394.492 241.199L394.995 240.335L398.366 242.298L397.863 243.162L397.36 244.026L393.989 242.063L394.492 241.199ZM401.235 245.125L401.738 244.26L405.11 246.223L404.607 247.087L404.104 247.952L400.732 245.989L401.235 245.125ZM407.978 249.05L408.482 248.186L411.853 250.149L411.35 251.013L410.847 251.877L407.475 249.914L407.978 249.05ZM414.722 252.976L415.225 252.111L418.597 254.074L418.094 254.938L417.59 255.803L414.219 253.84L414.722 252.976ZM421.465 256.901L421.968 256.037L425.34 258L424.837 258.864L424.334 259.728L420.962 257.765L421.465 256.901ZM428.209 260.827L428.712 259.962L430.398 260.944L429.895 261.808L429.391 262.672L427.706 261.691L428.209 260.827Z" fill="#00664E"/>
<circle cx="42" cy="277" r="38" fill="#F4F9FF"/>
<circle cx="465" cy="277" r="38" fill="#F4F9FF"/>
<path d="M191.504 123.492C190.022 126.037 186.757 126.9 184.211 125.418C181.666 123.936 180.803 120.671 182.285 118.125C183.767 115.58 187.032 114.717 189.578 116.199C192.123 117.681 192.986 120.946 191.504 123.492ZM186.895 120.809L186.391 121.673L184.706 120.691L185.209 119.827L185.712 118.963L187.398 119.944L186.895 120.809ZM181.837 117.864L181.334 118.729L177.962 116.766L178.465 115.902L178.968 115.037L182.34 117L181.837 117.864ZM175.094 113.939L174.59 114.803L171.219 112.84L171.722 111.976L172.225 111.112L175.597 113.075L175.094 113.939ZM168.35 110.013L167.847 110.878L164.475 108.915L164.978 108.051L165.482 107.186L168.853 109.149L168.35 110.013ZM161.607 106.088L161.104 106.952L157.732 104.989L158.235 104.125L158.738 103.261L162.11 105.224L161.607 106.088ZM154.863 102.162L154.36 103.027L150.989 101.064L151.492 100.2L151.995 99.3354L155.366 101.298L154.863 102.162ZM148.12 98.2369L147.617 99.1012L144.245 97.1384L144.748 96.2742L145.251 95.4099L148.623 97.3727L148.12 98.2369ZM141.377 94.3114L140.873 95.1757L137.502 93.2129L138.005 92.3487L138.508 91.4844L141.88 93.4472L141.377 94.3114ZM134.633 90.3859L134.13 91.2502L130.758 89.2874L131.261 88.4232L131.765 87.5589L135.136 89.5217L134.633 90.3859ZM127.89 86.4604L127.387 87.3246L124.015 85.3619L124.518 84.4977L125.021 83.6334L128.393 85.5962L127.89 86.4604ZM121.146 82.5349L120.643 83.3991L117.272 81.4364L117.775 80.5721L118.278 79.7079L121.649 81.6707L121.146 82.5349ZM114.403 78.6094L113.9 79.4736L110.528 77.5109L111.031 76.6466L111.534 75.7824L114.906 77.7452L114.403 78.6094ZM107.659 74.6839L107.156 75.5481L103.785 73.5854L104.288 72.7211L104.791 71.8569L108.163 73.8197L107.659 74.6839ZM100.916 70.7584L100.413 71.6226L97.0413 69.6599L97.5444 68.7956L98.0475 67.9314L101.419 69.8942L100.916 70.7584ZM94.1727 66.8329L93.6696 67.6971L90.2979 65.7344L90.801 64.8701L91.3041 64.0059L94.6758 65.9686L94.1727 66.8329ZM87.4293 62.9074L86.9262 63.7716L83.5545 61.8089L84.0576 60.9446L84.5607 60.0804L87.9324 62.0431L87.4293 62.9074ZM80.6859 58.9819L80.1828 59.8461L78.4969 58.8647L79 58.0005L79.5031 57.1363L81.189 58.1176L80.6859 58.9819Z" fill="#00664E"/>
<path d="M317.391 123.683C318.873 126.229 322.138 127.091 324.683 125.609C327.229 124.127 328.091 120.862 326.609 118.317C325.127 115.771 321.862 114.909 319.317 116.391C316.771 117.873 315.909 121.138 317.391 123.683ZM322 121L322.503 121.864L324.189 120.883L323.686 120.019L323.183 119.154L321.497 120.136L322 121ZM327.058 118.056L327.561 118.92L330.932 116.957L330.429 116.093L329.926 115.229L326.554 117.192L327.058 118.056ZM333.801 114.13L334.304 114.995L337.676 113.032L337.173 112.168L336.67 111.303L333.298 113.266L333.801 114.13ZM340.544 110.205L341.047 111.069L344.419 109.106L343.916 108.242L343.413 107.378L340.041 109.341L340.544 110.205ZM347.288 106.279L347.791 107.144L351.163 105.181L350.659 104.317L350.156 103.452L346.785 105.415L347.288 106.279ZM354.031 102.354L354.534 103.218L357.906 101.255L357.403 100.391L356.9 99.5269L353.528 101.49L354.031 102.354ZM360.775 98.4283L361.278 99.2926L364.649 97.3298L364.146 96.4656L363.643 95.6014L360.272 97.5641L360.775 98.4283ZM367.518 94.5028L368.021 95.3671L371.393 93.4043L370.89 92.5401L370.387 91.6758L367.015 93.6386L367.518 94.5028ZM374.261 90.5773L374.764 91.4416L378.136 89.4788L377.633 88.6146L377.13 87.7503L373.758 89.7131L374.261 90.5773ZM381.005 86.6518L381.508 87.516L384.88 85.5533L384.377 84.6891L383.873 83.8248L380.502 85.7876L381.005 86.6518ZM387.748 82.7263L388.251 83.5905L391.623 81.6278L391.12 80.7636L390.617 79.8993L387.245 81.8621L387.748 82.7263ZM394.492 78.8008L394.995 79.665L398.366 77.7023L397.863 76.838L397.36 75.9738L393.989 77.9366L394.492 78.8008ZM401.235 74.8753L401.738 75.7395L405.11 73.7768L404.607 72.9125L404.104 72.0483L400.732 74.0111L401.235 74.8753ZM407.978 70.9498L408.482 71.814L411.853 69.8513L411.35 68.987L410.847 68.1228L407.475 70.0856L407.978 70.9498ZM414.722 67.0243L415.225 67.8885L418.597 65.9258L418.094 65.0615L417.59 64.1973L414.219 66.1601L414.722 67.0243ZM421.465 63.0988L421.968 63.963L425.34 62.0003L424.837 61.136L424.334 60.2718L420.962 62.2345L421.465 63.0988ZM428.209 59.1733L428.712 60.0375L430.398 59.0561L429.895 58.1919L429.391 57.3277L427.706 58.309L428.209 59.1733Z" fill="#00664E"/>
<circle cx="38" cy="38" r="38" transform="matrix(1 0 0 -1 4 81)" fill="#F4F9FF"/>
<circle cx="38" cy="38" r="38" transform="matrix(1 0 0 -1 427 76)" fill="#F4F9FF"/>
</g>
<defs>
<filter id="filter0_d_1_18191" x="0" y="0" width="507" height="323" filterUnits="userSpaceOnUse" color-interpolation-filters="sRGB">
<feFlood flood-opacity="0" result="BackgroundImageFix"/>
<feColorMatrix in="SourceAlpha" type="matrix" values="0 0 0 0 0 0 0 0 0 0 0 0 0 0 0 0 0 0 127 0" result="hardAlpha"/>
<feOffset dy="4"/>
<feGaussianBlur stdDeviation="2"/>
<feComposite in2="hardAlpha" operator="out"/>
<feColorMatrix type="matrix" values="0 0 0 0 0 0 0 0 0 0 0 0 0 0 0 0 0 0 0.25 0"/>
<feBlend mode="normal" in2="BackgroundImageFix" result="effect1_dropShadow_1_18191"/>
<feBlend mode="normal" in="SourceGraphic" in2="effect1_dropShadow_1_18191" result="shape"/>
</filter>
</defs>
</svg>
