<svg width="25" height="24" viewBox="0 0 25 24" fill="none" xmlns="http://www.w3.org/2000/svg">
<ellipse cx="12.5" cy="12" rx="12.5" ry="12" fill="#00664E"/>
<path d="M20.1787 21H5V4H20.1787V21Z" stroke="#E5E7EB"/>
<g clip-path="url(#clip0_89_8424)">
<path d="M8.41518 6.125C8.91838 6.125 9.40097 6.3249 9.75679 6.68071C10.1126 7.03653 10.3125 7.51912 10.3125 8.02232C10.3125 8.52552 10.1126 9.00811 9.75679 9.36393C9.40097 9.71975 8.91838 9.91964 8.41518 9.91964C7.91198 9.91964 7.42939 9.71975 7.07357 9.36393C6.71775 9.00811 6.51786 8.52552 6.51786 8.02232C6.51786 7.51912 6.71775 7.03653 7.07357 6.68071C7.42939 6.3249 7.91198 6.125 8.41518 6.125ZM17.1429 6.125C17.6461 6.125 18.1286 6.3249 18.4845 6.68071C18.8403 7.03653 19.0402 7.51912 19.0402 8.02232C19.0402 8.52552 18.8403 9.00811 18.4845 9.36393C18.1286 9.71975 17.6461 9.91964 17.1429 9.91964C16.6397 9.91964 16.1571 9.71975 15.8012 9.36393C15.4454 9.00811 15.2455 8.52552 15.2455 8.02232C15.2455 7.51912 15.4454 7.03653 15.8012 6.68071C16.1571 6.3249 16.6397 6.125 17.1429 6.125ZM5 13.2091C5 11.8122 6.13365 10.6786 7.53055 10.6786H8.54325C8.92034 10.6786 9.27846 10.7616 9.601 10.9086C9.57017 11.0794 9.55594 11.2573 9.55594 11.4375C9.55594 12.3435 9.95438 13.1569 10.5829 13.7143C10.5781 13.7143 10.5734 13.7143 10.5663 13.7143H5.50516C5.22768 13.7143 5 13.4866 5 13.2091ZM14.6123 13.7143C14.6076 13.7143 14.6028 13.7143 14.5957 13.7143C15.2266 13.1569 15.6226 12.3435 15.6226 11.4375C15.6226 11.2573 15.606 11.0818 15.5776 10.9086C15.9001 10.7592 16.2582 10.6786 16.6353 10.6786H17.648C19.0449 10.6786 20.1786 11.8122 20.1786 13.2091C20.1786 13.489 19.9509 13.7143 19.6734 13.7143H14.6123ZM10.3125 11.4375C10.3125 10.8337 10.5524 10.2545 10.9794 9.82757C11.4063 9.40059 11.9854 9.16071 12.5893 9.16071C13.1931 9.16071 13.7722 9.40059 14.1992 9.82757C14.6262 10.2545 14.8661 10.8337 14.8661 11.4375C14.8661 12.0413 14.6262 12.6205 14.1992 13.0474C13.7722 13.4744 13.1931 13.7143 12.5893 13.7143C11.9854 13.7143 11.4063 13.4744 10.9794 13.0474C10.5524 12.6205 10.3125 12.0413 10.3125 11.4375ZM8.03571 17.6346C8.03571 15.8891 9.45159 14.4732 11.1971 14.4732H13.9814C15.727 14.4732 17.1429 15.8891 17.1429 17.6346C17.1429 17.9833 16.8606 18.2679 16.5096 18.2679H8.66895C8.32031 18.2679 8.03571 17.9856 8.03571 17.6346Z" fill="white"/>
</g>
<defs>
<clipPath id="clip0_89_8424">
<path d="M5 6.125H20.1786V18.2679H5V6.125Z" fill="white"/>
</clipPath>
</defs>
</svg>
