<svg width="673" height="531" viewBox="0 0 673 531" fill="none" xmlns="http://www.w3.org/2000/svg">
<g clip-path="url(#clip0_302_9160)">
<path d="M672.093 33.0165H0.840639C0.612118 33.0165 0.392954 32.9199 0.231365 32.7478C0.0697766 32.5758 -0.0209961 32.3425 -0.0209961 32.0992C-0.0209961 31.8559 0.0697766 31.6226 0.231365 31.4506C0.392954 31.2785 0.612118 31.1819 0.840639 31.1819H672.093C672.322 31.1819 672.541 31.2785 672.702 31.4506C672.864 31.6226 672.955 31.8559 672.955 32.0992C672.955 32.3425 672.864 32.5758 672.702 32.7478C672.541 32.9199 672.322 33.0165 672.093 33.0165Z" fill="#CACACA"/>
<path d="M19.8081 20.1772C24.9278 20.1772 29.0781 15.6604 29.0781 10.0886C29.0781 4.51682 24.9278 0 19.8081 0C14.6884 0 10.5381 4.51682 10.5381 10.0886C10.5381 15.6604 14.6884 20.1772 19.8081 20.1772Z" fill="#3F3D56"/>
<path d="M51.8298 20.1772C56.9495 20.1772 61.0998 15.6604 61.0998 10.0886C61.0998 4.51682 56.9495 0 51.8298 0C46.7101 0 42.5598 4.51682 42.5598 10.0886C42.5598 15.6604 46.7101 20.1772 51.8298 20.1772Z" fill="#3F3D56"/>
<path d="M83.854 20.1772C88.9737 20.1772 93.124 15.6604 93.124 10.0886C93.124 4.51682 88.9737 0 83.854 0C78.7343 0 74.584 4.51682 74.584 10.0886C74.584 15.6604 78.7343 20.1772 83.854 20.1772Z" fill="#3F3D56"/>
<path d="M652.903 6.16972H630.153C629.696 6.16972 629.258 5.97643 628.935 5.63237C628.612 5.28832 628.43 4.82168 628.43 4.33511C628.43 3.84854 628.612 3.38189 628.935 3.03783C629.258 2.69378 629.696 2.50049 630.153 2.50049H652.903C653.36 2.50049 653.798 2.69378 654.122 3.03783C654.445 3.38189 654.626 3.84854 654.626 4.33511C654.626 4.82168 654.445 5.28832 654.122 5.63237C653.798 5.97643 653.36 6.16972 652.903 6.16972Z" fill="#3F3D56"/>
<path d="M652.903 13.0496H630.153C629.696 13.0496 629.258 12.8563 628.935 12.5123C628.612 12.1682 628.43 11.7016 628.43 11.215C628.43 10.7284 628.612 10.2618 628.935 9.91772C629.258 9.57366 629.696 9.38037 630.153 9.38037H652.903C653.36 9.38037 653.798 9.57366 654.122 9.91772C654.445 10.2618 654.626 10.7284 654.626 11.215C654.626 11.7016 654.445 12.1682 654.122 12.5123C653.798 12.8563 653.36 13.0496 652.903 13.0496Z" fill="#3F3D56"/>
<path d="M652.903 19.9283H630.153C629.696 19.9283 629.258 19.735 628.935 19.3909C628.612 19.0469 628.43 18.5802 628.43 18.0937C628.43 17.6071 628.612 17.1405 628.935 16.7964C629.258 16.4523 629.696 16.259 630.153 16.259H652.903C653.36 16.259 653.798 16.4523 654.122 16.7964C654.445 17.1405 654.626 17.6071 654.626 18.0937C654.626 18.5802 654.445 19.0469 654.122 19.3909C653.798 19.735 653.36 19.9283 652.903 19.9283Z" fill="#3F3D56"/>
<path d="M363.38 178.934C365.387 180.168 367.056 181.937 368.222 184.069C369.389 186.2 370.012 188.618 370.031 191.085C370.05 193.551 369.463 195.98 368.329 198.131C367.195 200.282 365.553 202.08 363.566 203.348C361.578 204.615 359.314 205.308 356.998 205.358C354.682 205.408 352.393 204.813 350.359 203.633C348.325 202.452 346.616 200.726 345.401 198.625C344.186 196.525 343.508 194.124 343.433 191.658L343.426 191.199L343.433 190.74C343.507 188.294 344.176 185.911 345.373 183.822C346.57 181.733 348.256 180.01 350.265 178.821C352.274 177.632 354.538 177.017 356.837 177.037C359.135 177.057 361.39 177.711 363.38 178.934ZM360.986 194.433C360.861 194.303 360.713 194.2 360.551 194.13C360.389 194.061 360.216 194.026 360.041 194.028C359.867 194.03 359.694 194.068 359.533 194.141C359.373 194.214 359.227 194.32 359.105 194.452C358.795 194.789 358.426 195.057 358.018 195.239C357.61 195.422 357.171 195.516 356.729 195.516C356.286 195.516 355.848 195.422 355.44 195.239C355.032 195.057 354.662 194.789 354.353 194.452C354.106 194.184 353.769 194.032 353.416 194.028C353.063 194.024 352.724 194.17 352.472 194.433C352.22 194.696 352.077 195.054 352.073 195.43C352.07 195.805 352.206 196.167 352.453 196.435C353.011 197.04 353.676 197.521 354.41 197.85C355.144 198.178 355.933 198.347 356.729 198.347C357.525 198.347 358.313 198.178 359.047 197.85C359.782 197.521 360.447 197.04 361.004 196.435C361.126 196.302 361.223 196.145 361.288 195.973C361.353 195.8 361.386 195.616 361.384 195.43C361.383 195.244 361.347 195.06 361.278 194.889C361.21 194.718 361.11 194.563 360.986 194.433ZM352.752 186.946L352.583 186.956C352.245 186.997 351.934 187.174 351.715 187.451C351.496 187.728 351.385 188.084 351.405 188.446C351.425 188.808 351.574 189.148 351.822 189.396C352.071 189.643 352.399 189.781 352.739 189.779L352.907 189.769C353.246 189.728 353.556 189.551 353.775 189.274C353.995 188.997 354.106 188.641 354.086 188.279C354.066 187.917 353.916 187.578 353.668 187.33C353.42 187.082 353.092 186.945 352.752 186.946ZM360.733 186.946L360.564 186.956C360.226 186.997 359.916 187.174 359.696 187.451C359.477 187.728 359.366 188.084 359.386 188.446C359.406 188.808 359.556 189.148 359.804 189.396C360.052 189.643 360.38 189.781 360.72 189.779L360.889 189.769C361.227 189.728 361.538 189.551 361.757 189.274C361.976 188.997 362.087 188.641 362.067 188.279C362.047 187.917 361.898 187.578 361.649 187.33C361.401 187.082 361.073 186.945 360.733 186.946Z" fill="#00664E"/>
<path d="M504.757 459.464L504.529 459.451H493.327C492.987 459.453 492.659 459.322 492.403 459.083C492.148 458.845 491.984 458.515 491.941 458.156L491.93 457.982V443.916C491.932 443.657 491.998 443.402 492.121 443.179C492.244 442.955 492.42 442.77 492.631 442.641C493.226 442.282 493.729 441.771 494.093 441.155C494.457 440.539 494.673 439.836 494.72 439.109L494.731 438.813V437.334C494.734 436.75 494.844 436.172 495.057 435.634C495.269 435.096 495.58 434.608 495.97 434.197C496.36 433.786 496.822 433.461 497.33 433.241C497.838 433.02 498.382 432.908 498.93 432.911C499.996 432.906 501.024 433.334 501.803 434.108C502.583 434.883 503.055 435.945 503.123 437.078L503.129 437.333V443.234H505.931C506.955 443.229 507.946 443.625 508.715 444.346C509.484 445.067 509.978 446.063 510.103 447.145L510.126 447.4L510.131 447.657L510.103 447.947L508.694 455.368C508.168 457.747 506.614 459.465 504.806 459.465L504.757 459.464ZM487.985 459.451C487.283 459.457 486.605 459.18 486.087 458.675C485.57 458.17 485.25 457.474 485.194 456.729L485.183 456.509V446.183C485.187 445.435 485.456 444.716 485.937 444.17C486.418 443.624 487.075 443.291 487.776 443.238L487.985 443.233H489.388C489.729 443.232 490.059 443.364 490.314 443.604C490.57 443.845 490.734 444.176 490.775 444.537L490.787 444.708V457.978C490.785 458.341 490.657 458.691 490.429 458.961C490.201 459.231 489.888 459.403 489.549 459.443L489.388 459.449L487.985 459.451Z" fill="#00664E"/>
<path d="M452.402 453.369C414.43 453.369 373.166 447.362 332.181 435.81C281.496 421.525 235.023 399.964 197.788 373.455L198.89 371.699C235.95 398.079 282.213 419.543 332.688 433.768C378.302 446.624 424.257 452.581 465.571 451.009L465.642 453.12C461.279 453.287 456.865 453.371 452.402 453.369Z" fill="#090814"/>
<path d="M446.716 178.995C434.384 174.721 421.701 170.74 409.015 167.165C336.019 146.592 264.264 139.287 201.502 146.046L201.302 143.944C264.297 137.164 336.299 144.482 409.523 165.124C422.241 168.71 434.964 172.701 447.331 176.988L446.716 178.995Z" fill="#090814"/>
<path d="M112.225 343.353C81.8006 311.467 68.9501 278.202 76.0411 249.686C85.1376 213.093 125.566 187.791 186.953 180.27L187.18 182.369C126.646 189.785 86.839 214.518 77.9632 250.227C71.0625 277.979 83.726 310.517 113.621 341.849L112.225 343.353Z" fill="#090814"/>
<path d="M524.847 440.264L524.211 438.263C558.171 426.038 579.412 406.347 585.638 381.314C593.551 349.492 576.359 312.564 537.231 277.335C497.903 241.925 441.19 212.544 377.537 194.605L378.042 192.562C441.97 210.58 498.96 240.113 538.508 275.721C578.254 311.508 595.672 349.2 587.552 381.855C581.152 407.605 559.468 427.802 524.847 440.264Z" fill="#090814"/>
<path d="M187.141 446.19C112.529 410.96 55.0339 365.254 25.2488 317.49L26.9022 316.324C56.4809 363.759 113.673 409.192 187.944 444.262L187.141 446.19Z" fill="#090814"/>
<path d="M483.522 354.336C487.906 354.336 491.46 350.553 491.46 345.886C491.46 341.219 487.906 337.436 483.522 337.436C479.138 337.436 475.584 341.219 475.584 345.886C475.584 350.553 479.138 354.336 483.522 354.336Z" fill="#E6E6E6"/>
<path d="M335.832 119.951C340.215 119.951 343.769 116.167 343.769 111.5C343.769 106.833 340.215 103.05 335.832 103.05C331.448 103.05 327.894 106.833 327.894 111.5C327.894 116.167 331.448 119.951 335.832 119.951Z" fill="#E6E6E6"/>
<path d="M169.504 435.639C169.504 437.792 169.57 439.944 169.712 442.075C169.862 444.624 170.119 447.156 170.47 449.67C171.643 458.134 173.887 466.391 177.138 474.216L177.637 475.381L177.889 475.965C177.974 476.16 178.064 476.354 178.147 476.541C178.263 476.797 178.372 477.046 178.484 477.293C178.626 477.603 178.767 477.913 178.916 478.222C178.933 478.257 178.949 478.302 178.974 478.346C179.099 478.615 179.215 478.868 179.348 479.134C179.373 479.192 179.401 479.248 179.432 479.303C179.574 479.604 179.723 479.913 179.873 480.215C180.041 480.533 180.197 480.861 180.363 481.179C180.762 481.968 181.178 482.746 181.602 483.525C181.727 483.756 181.855 483.985 181.984 484.216C182.101 484.428 182.217 484.641 182.342 484.853C182.426 484.995 182.51 485.145 182.594 485.287C182.727 485.527 182.86 485.756 183.002 485.996C183.309 486.517 183.625 487.04 183.933 487.562H183.942C184.083 487.801 184.233 488.04 184.382 488.27V488.279C184.823 488.988 185.28 489.695 185.738 490.395C185.74 490.395 185.742 490.396 185.744 490.397C185.745 490.399 185.746 490.401 185.746 490.404C186.112 490.97 186.494 491.519 186.869 492.068V492.077C187.121 492.422 187.359 492.776 187.609 493.122C187.809 493.405 188.017 493.697 188.224 493.98C188.265 494.042 188.316 494.095 188.357 494.16V494.169C188.415 494.249 188.473 494.319 188.531 494.399C189.413 495.603 190.322 496.781 191.259 497.931L191.409 498.117C191.458 498.179 191.516 498.241 191.567 498.311C191.651 498.409 191.725 498.506 191.808 498.604C191.89 498.702 191.966 498.798 192.049 498.896C196.932 504.752 202.469 509.952 208.537 514.378C209.344 514.971 210.167 515.544 210.99 516.104C211.198 516.246 211.406 516.388 211.613 516.52C211.671 516.564 211.738 516.61 211.796 516.653C211.912 516.724 212.021 516.795 212.133 516.875C212.245 516.954 212.349 517.016 212.465 517.087C212.906 517.38 213.355 517.663 213.804 517.946C213.911 518.017 214.029 518.088 214.141 518.159C214.253 518.23 214.365 518.291 214.477 518.362C214.477 518.371 214.477 518.371 214.486 518.371H214.494V518.38H214.503C215.06 518.725 215.625 519.061 216.199 519.389C216.507 519.568 216.822 519.748 217.139 519.92C217.854 520.336 218.578 520.734 219.301 521.115C219.559 521.248 219.825 521.384 220.083 521.522C220.299 521.628 220.515 521.744 220.731 521.849C220.798 521.884 220.856 521.911 220.914 521.947C221.097 522.037 221.271 522.127 221.455 522.216C221.654 522.314 221.854 522.411 222.044 522.509C222.269 522.614 222.485 522.721 222.71 522.818C223.541 523.216 224.381 523.597 225.221 523.959C228.23 525.273 231.306 526.408 234.433 527.359C234.575 527.403 234.725 527.448 234.874 527.491C236.212 527.89 237.56 528.252 238.917 528.58C241.286 529.164 243.678 529.642 246.092 530.015H246.109L246.974 530.147C246.999 530.147 247.024 530.156 247.058 530.156C247.058 530.165 247.058 530.165 247.067 530.156L248.022 530.289C248.044 530.296 248.067 530.299 248.089 530.298C248.388 530.342 248.696 530.378 248.995 530.413L249.968 530.519L250.716 530.598C250.737 530.606 250.76 530.609 250.783 530.607C251.007 530.625 251.231 530.651 251.456 530.669H251.49L252.072 530.722C254.392 530.917 256.72 531.006 259.081 531.006C261.634 531.006 264.17 530.9 266.673 530.669H266.698L268.303 530.51C268.444 530.492 268.577 530.483 268.719 530.466C268.744 530.466 268.777 530.457 268.803 530.457C268.844 530.448 268.887 530.448 268.936 530.439C268.958 530.44 268.981 530.437 269.002 530.43C269.185 530.412 269.368 530.386 269.559 530.368L270.183 530.288C270.391 530.261 270.599 530.226 270.806 530.199C270.855 530.19 270.898 530.19 270.947 530.181C271.097 530.163 271.246 530.137 271.396 530.11L271.613 530.083C271.763 530.056 271.904 530.039 272.053 530.012H272.062C276.624 529.314 281.128 528.234 285.531 526.784C285.764 526.704 285.997 526.633 286.229 526.554C286.238 526.554 286.246 526.545 286.255 526.545C286.321 526.518 286.396 526.501 286.463 526.474C287.086 526.261 287.702 526.04 288.316 525.81C289.164 525.509 290 525.182 290.842 524.845C291.067 524.748 291.291 524.66 291.516 524.562C291.974 524.376 292.423 524.182 292.871 523.986C293.636 523.659 294.401 523.314 295.158 522.96C295.865 522.623 296.563 522.287 297.264 521.933C297.281 521.924 297.305 521.924 297.322 521.906C297.48 521.826 297.638 521.746 297.788 521.667H297.796C301.625 519.71 305.318 517.465 308.847 514.948C309.978 514.142 311.092 513.31 312.189 512.451C313.07 511.752 313.935 511.044 314.8 510.318C319.066 506.706 323.015 502.688 326.598 498.315V498.306C326.856 498.005 327.097 497.695 327.346 497.385C327.388 497.341 327.421 497.296 327.454 497.261C327.613 497.058 327.762 496.863 327.92 496.669V496.66C328.128 496.403 328.336 496.138 328.535 495.872C328.585 495.81 328.627 495.757 328.668 495.703V495.694C328.836 495.482 328.992 495.269 329.158 495.048C329.242 494.942 329.316 494.835 329.399 494.729V494.72C329.889 494.065 330.363 493.41 330.838 492.738C330.962 492.558 331.09 492.379 331.22 492.189C331.819 491.33 332.399 490.454 332.966 489.578V489.569C333.182 489.242 333.387 488.905 333.606 488.577L334.229 487.568C334.437 487.214 334.65 486.869 334.861 486.515L334.886 486.462C335.094 486.126 335.302 485.771 335.501 485.426C335.66 485.143 335.817 484.868 335.975 484.594C336.075 484.408 336.183 484.222 336.283 484.027C336.322 483.967 336.358 483.905 336.391 483.842L337.089 482.541C337.363 482.036 337.63 481.523 337.896 481.009C337.995 480.797 338.104 480.584 338.212 480.371C338.253 480.301 338.287 480.23 338.319 480.159C338.444 479.911 338.572 479.654 338.685 479.398C338.798 479.141 338.938 478.893 339.059 478.636C339.18 478.38 339.3 478.132 339.416 477.875C339.508 477.681 339.59 477.486 339.682 477.291C339.689 477.276 339.697 477.261 339.707 477.247C339.749 477.15 339.792 477.062 339.824 476.973C339.834 476.96 339.842 476.945 339.849 476.929C339.941 476.735 340.023 476.531 340.115 476.336C340.231 476.08 340.34 475.815 340.452 475.557C340.527 475.378 340.61 475.199 340.685 475.008C340.792 474.752 340.909 474.495 341.009 474.229C341.125 473.96 341.234 473.698 341.341 473.422C341.373 473.356 341.401 473.288 341.426 473.219C341.484 473.095 341.525 472.971 341.576 472.847C341.709 472.519 341.842 472.183 341.966 471.855C342.116 471.483 342.257 471.102 342.388 470.73C342.521 470.385 342.645 470.031 342.77 469.677L342.82 469.553C344.757 464.121 346.226 458.512 347.21 452.797V452.788C347.764 449.524 348.161 446.231 348.399 442.924C348.407 442.739 348.424 442.565 348.432 442.386C348.582 440.144 348.648 437.903 348.648 435.641C348.648 434.641 348.631 433.65 348.607 432.658C348.027 411.924 341.082 391.963 328.835 375.829C328.568 375.475 328.302 375.12 328.028 374.766C327.753 374.412 327.471 374.067 327.196 373.722C318.082 362.358 306.586 353.433 293.637 347.667C280.688 341.9 266.647 339.454 252.647 340.525C238.647 341.595 225.079 346.153 213.037 353.831C200.995 361.508 190.816 372.091 183.32 384.725C182.913 385.415 182.506 386.115 182.115 386.814C181.724 387.513 181.333 388.23 180.951 388.947C173.422 403.202 169.479 419.286 169.504 435.639Z" fill="#F2F2F2"/>
<path d="M223.835 383.315C223.769 383.303 223.704 383.293 223.639 383.28C223.914 383.099 224.173 382.891 224.413 382.66L223.835 383.315Z" fill="white"/>
<path d="M248.714 465.856H267.888L269.08 489.291L246.407 487.415L248.714 465.856Z" fill="#FFB9B9"/>
<path d="M211.698 516.78C212.558 517.281 213.429 517.76 214.299 518.215C214.609 518.374 214.929 518.534 215.239 518.704C215.499 518.833 215.759 518.973 216.019 519.099C216.103 519.141 216.169 519.173 216.238 519.216C216.458 519.323 216.669 519.43 216.889 519.536C217.129 519.653 217.369 519.77 217.599 519.887C217.869 520.015 218.129 520.143 218.399 520.26C219.399 520.739 220.409 521.197 221.42 521.634C225.041 523.214 228.742 524.58 232.505 525.724C232.674 525.777 232.856 525.83 233.035 525.883C234.646 526.362 236.267 526.798 237.897 527.193C240.749 527.896 243.627 528.471 246.531 528.919H246.552L247.592 529.078C247.622 529.078 247.652 529.089 247.692 529.089C247.692 529.1 247.692 529.1 247.702 529.089L248.853 529.249C248.88 529.257 248.908 529.261 248.937 529.259C249.297 529.313 249.667 529.355 250.028 529.398L251.198 529.526L252.099 529.622C252.124 529.631 252.152 529.635 252.179 529.632C252.449 529.654 252.719 529.685 252.989 529.707H253.03L253.729 529.77C256.521 530.005 259.322 530.111 262.163 530.111C265.235 530.111 268.285 529.983 271.297 529.707H271.327L273.257 529.515C273.426 529.493 273.588 529.483 273.758 529.462C273.788 529.462 273.828 529.451 273.858 529.451C273.908 529.44 273.958 529.44 274.018 529.43C274.045 529.431 274.072 529.427 274.098 529.419C274.318 529.397 274.538 529.366 274.772 529.345L275.522 529.249C275.775 529.216 276.023 529.174 276.273 529.142C276.333 529.131 276.383 529.131 276.441 529.12C276.621 529.099 276.802 529.067 276.981 529.031L277.241 528.998C277.422 528.966 277.592 528.946 277.772 528.909H277.782C283.272 528.068 288.691 526.768 293.989 525.022C294.269 524.926 294.549 524.842 294.831 524.745C293.539 518.331 290.88 512.32 287.059 507.175C283.237 502.03 278.356 497.889 272.792 495.072C274.168 493.677 275.119 491.873 275.523 489.896C275.783 488.621 275.803 487.305 275.584 486.021C275.364 484.738 274.908 483.514 274.243 482.419C272.945 480.297 270.908 478.81 268.58 478.286L253.756 474.985C251.37 474.489 248.896 475.017 246.873 476.453C244.849 477.889 243.44 480.117 242.952 482.653C242.8 483.431 242.733 484.224 242.751 485.018C228.465 495.149 218.19 505.64 211.698 516.78Z" fill="#00664E"/>
<path d="M253.261 473.06C269.126 473.06 281.987 459.368 281.987 442.478C281.987 425.588 269.126 411.896 253.261 411.896C237.395 411.896 224.534 425.588 224.534 442.478C224.534 459.368 237.395 473.06 253.261 473.06Z" fill="#FFB9B9"/>
<path d="M235.355 468.843C232.292 466.616 229.164 462.335 227.076 459.127C224.308 454.909 222.404 450.12 221.486 445.069C220.569 440.017 220.658 434.817 221.749 429.805C222.097 427.801 222.952 425.936 224.222 424.412C225.575 422.986 227.785 422.311 229.437 423.319C228.986 422.034 228.788 420.664 228.853 419.295C228.919 417.925 229.248 416.584 229.82 415.355C230.981 412.901 232.662 410.769 234.732 409.127C238.69 405.882 243.399 403.839 248.36 403.214C253.32 402.588 258.347 403.405 262.907 405.576C264.701 406.461 261.754 399.625 263.633 400.285C265.498 401.054 267.572 401.016 269.411 400.177C271.18 399.23 277.033 404.855 276.355 402.877C277.696 403.525 278.86 404.523 279.741 405.779C280.621 407.036 281.189 408.509 281.39 410.061C281.592 411.614 281.422 413.195 280.895 414.659C280.368 416.122 279.501 417.42 278.376 418.431C276.894 419.763 275.043 420.53 273.42 421.659C270.576 423.789 268.563 426.955 267.761 430.557C266.959 434.159 267.424 437.949 269.067 441.212C267.359 440.044 265.485 439.177 263.517 438.645C262.53 438.388 261.5 438.387 260.512 438.64C259.524 438.893 258.607 439.393 257.838 440.099C257.195 440.883 256.709 441.798 256.411 442.788C256.112 443.779 256.007 444.824 256.101 445.86C256.165 447.934 256.629 449.98 256.681 452.055C256.834 458.145 259.898 469.725 255.463 472.963C251.958 475.521 239.536 471.886 235.355 468.843Z" fill="#2F2E41"/>
<path d="M668.016 226.736C668.016 228.888 667.949 231.04 667.808 233.171C667.658 235.72 667.4 238.252 667.05 240.766C665.876 249.23 663.633 257.487 660.382 265.312L659.883 266.478L659.63 267.062C659.546 267.257 659.456 267.451 659.372 267.638C659.256 267.894 659.148 268.143 659.036 268.39C658.894 268.7 658.753 269.01 658.603 269.32C658.587 269.355 658.571 269.4 658.545 269.444C658.421 269.713 658.304 269.966 658.171 270.232C658.147 270.29 658.118 270.346 658.087 270.401C657.946 270.702 657.796 271.011 657.647 271.312C657.478 271.631 657.322 271.959 657.156 272.277C656.757 273.066 656.342 273.844 655.917 274.623C655.793 274.854 655.665 275.083 655.535 275.314C655.419 275.526 655.303 275.739 655.178 275.951C655.094 276.093 655.01 276.243 654.925 276.385C654.792 276.624 654.659 276.854 654.518 277.093C654.21 277.615 653.894 278.138 653.586 278.66H653.578C653.436 278.899 653.286 279.138 653.137 279.368V279.377C652.697 280.086 652.239 280.793 651.782 281.493C651.78 281.493 651.778 281.493 651.776 281.495C651.774 281.497 651.774 281.499 651.774 281.502C651.408 282.068 651.026 282.617 650.651 283.166V283.175C650.398 283.52 650.161 283.874 649.91 284.219C649.711 284.503 649.503 284.795 649.295 285.078C649.253 285.14 649.203 285.193 649.162 285.258V285.267C649.104 285.347 649.045 285.417 648.987 285.497C648.106 286.701 647.197 287.878 646.26 289.029L646.11 289.215C646.06 289.277 646.002 289.339 645.952 289.409C645.868 289.507 645.793 289.604 645.711 289.702C645.628 289.799 645.553 289.896 645.47 289.994C640.587 295.85 635.05 301.05 628.982 305.476C628.176 306.069 627.352 306.642 626.529 307.202C626.321 307.344 626.113 307.486 625.906 307.618C625.848 307.662 625.781 307.708 625.723 307.751C625.607 307.822 625.498 307.893 625.386 307.973C625.274 308.052 625.17 308.114 625.053 308.185C624.613 308.477 624.164 308.761 623.715 309.044C623.607 309.115 623.49 309.186 623.378 309.257C623.266 309.327 623.153 309.389 623.041 309.46C623.041 309.469 623.041 309.469 623.033 309.469H623.024V309.478H623.016C622.459 309.823 621.894 310.159 621.32 310.487C621.012 310.666 620.696 310.846 620.38 311.018C619.665 311.434 618.941 311.832 618.218 312.213C617.96 312.346 617.694 312.482 617.436 312.62C617.219 312.726 617.004 312.842 616.787 312.947C616.721 312.982 616.663 313.009 616.605 313.045C616.422 313.135 616.248 313.224 616.064 313.314C615.864 313.412 615.665 313.509 615.474 313.606C615.249 313.712 615.034 313.819 614.809 313.916C613.978 314.314 613.138 314.695 612.298 315.057C609.289 316.371 606.213 317.506 603.085 318.457C602.944 318.501 602.794 318.546 602.645 318.589C601.306 318.987 599.959 319.35 598.602 319.678C596.232 320.262 593.841 320.74 591.427 321.113H591.41L590.545 321.245C590.52 321.245 590.495 321.254 590.461 321.254C590.461 321.263 590.461 321.263 590.452 321.254L589.496 321.387C589.475 321.394 589.452 321.397 589.43 321.396C589.131 321.44 588.822 321.476 588.523 321.511L587.551 321.617L586.803 321.696C586.781 321.704 586.759 321.707 586.736 321.705C586.511 321.723 586.287 321.749 586.062 321.767H586.03L585.447 321.82C583.128 322.015 580.8 322.103 578.438 322.103C575.885 322.103 573.349 321.998 570.847 321.767H570.822L569.217 321.608C569.076 321.59 568.942 321.581 568.801 321.564C568.776 321.564 568.743 321.555 568.717 321.555C568.675 321.546 568.632 321.546 568.584 321.537C568.561 321.538 568.539 321.535 568.517 321.528C568.334 321.51 568.152 321.484 567.96 321.466L567.337 321.386C567.129 321.359 566.921 321.324 566.714 321.296C566.664 321.287 566.622 321.287 566.572 321.279C566.422 321.261 566.273 321.235 566.123 321.208L565.907 321.181C565.757 321.154 565.615 321.137 565.466 321.11H565.458C560.896 320.412 556.392 319.332 551.988 317.882C551.756 317.802 551.523 317.731 551.29 317.651C551.282 317.651 551.273 317.642 551.265 317.642C551.198 317.615 551.123 317.598 551.057 317.572C550.434 317.359 549.818 317.138 549.204 316.908C548.356 316.607 547.519 316.28 546.677 315.943C546.452 315.845 546.228 315.758 546.003 315.66C545.546 315.474 545.097 315.28 544.648 315.084C543.883 314.757 543.119 314.412 542.361 314.057C541.655 313.721 540.956 313.385 540.256 313.031C540.239 313.022 540.214 313.022 540.197 313.004C540.039 312.924 539.882 312.844 539.732 312.764H539.723C535.894 310.808 532.201 308.563 528.673 306.046C527.542 305.24 526.428 304.408 525.33 303.549C524.449 302.85 523.584 302.141 522.719 301.416C518.453 297.803 514.504 293.786 510.92 289.413V289.404C510.663 289.103 510.422 288.793 510.172 288.483C510.131 288.439 510.097 288.393 510.065 288.359C509.906 288.156 509.757 287.961 509.599 287.767V287.758C509.391 287.501 509.183 287.236 508.983 286.97C508.933 286.908 508.891 286.855 508.85 286.801V286.792C508.682 286.579 508.526 286.367 508.36 286.145C508.276 286.04 508.201 285.933 508.119 285.827V285.818C507.629 285.164 507.154 284.508 506.68 283.836C506.556 283.656 506.428 283.477 506.298 283.287C505.699 282.428 505.119 281.552 504.552 280.676V280.667C504.335 280.339 504.131 280.003 503.912 279.675L503.289 278.666C503.08 278.312 502.867 277.967 502.657 277.613L502.632 277.56C502.423 277.223 502.215 276.869 502.016 276.524C501.858 276.241 501.7 275.966 501.542 275.692C501.442 275.506 501.334 275.32 501.234 275.125C501.195 275.065 501.159 275.003 501.126 274.94L500.428 273.638C500.154 273.134 499.887 272.621 499.621 272.107C499.522 271.894 499.413 271.682 499.305 271.469C499.264 271.399 499.23 271.328 499.198 271.257C499.073 271.009 498.945 270.752 498.832 270.496C498.719 270.239 498.579 269.991 498.458 269.734C498.337 269.478 498.217 269.229 498.101 268.973C498.009 268.778 497.927 268.584 497.835 268.388C497.828 268.373 497.82 268.358 497.81 268.344C497.768 268.247 497.725 268.159 497.693 268.07C497.683 268.057 497.675 268.042 497.668 268.026C497.576 267.832 497.494 267.628 497.402 267.433C497.286 267.177 497.177 266.912 497.065 266.654C496.99 266.475 496.907 266.296 496.833 266.105C496.725 265.849 496.608 265.592 496.508 265.326C496.392 265.057 496.283 264.795 496.176 264.519C496.144 264.453 496.116 264.385 496.091 264.316C496.033 264.192 495.992 264.068 495.941 263.944C495.808 263.616 495.675 263.28 495.551 262.952C495.401 262.58 495.26 262.199 495.129 261.827C494.996 261.482 494.872 261.128 494.747 260.774L494.697 260.65C492.76 255.218 491.291 249.609 490.307 243.894V243.885C489.753 240.621 489.356 237.328 489.118 234.021C489.11 233.836 489.093 233.662 489.085 233.483C488.935 231.241 488.869 229 488.869 226.738C488.869 225.738 488.886 224.747 488.91 223.755C489.491 203.021 496.436 183.06 508.682 166.927C508.949 166.572 509.215 166.218 509.489 165.864C509.764 165.51 510.046 165.165 510.321 164.819C519.435 153.456 530.931 144.531 543.88 138.765C556.829 132.998 570.87 130.552 584.87 131.623C598.87 132.693 612.438 137.251 624.48 144.929C636.522 152.606 646.701 163.189 654.197 175.823C654.604 176.513 655.012 177.213 655.403 177.912C655.794 178.611 656.184 179.328 656.567 180.045C664.099 194.3 668.044 210.384 668.022 226.739L668.016 226.736Z" fill="#F2F2F2"/>
<path d="M613.687 174.412C613.753 174.399 613.818 174.389 613.883 174.377C613.608 174.195 613.349 173.987 613.109 173.756L613.687 174.412Z" fill="white"/>
<path d="M563.496 265.555L586.208 262.899L591.613 284.08L570.104 289.455L563.496 265.555Z" fill="#ED9DA0"/>
<path d="M569.166 272.005C584.025 272.005 596.071 258.895 596.071 242.724C596.071 226.552 584.025 213.442 569.166 213.442C554.307 213.442 542.262 226.552 542.262 242.724C542.262 258.895 554.307 272.005 569.166 272.005Z" fill="#ED9DA0"/>
<path d="M626.581 310.018C625.802 310.472 625.013 310.906 624.222 311.32C623.942 311.465 623.651 311.61 623.371 311.764C623.135 311.88 622.899 312.005 622.664 312.123C622.592 312.161 622.529 312.19 622.465 312.228C622.265 312.325 622.075 312.421 621.875 312.518C621.658 312.624 621.44 312.731 621.231 312.836C620.986 312.952 620.751 313.068 620.506 313.174C619.6 313.608 618.684 314.023 617.77 314.418C614.49 315.85 611.138 317.086 607.729 318.122C607.575 318.171 607.412 318.219 607.249 318.267C605.789 318.701 604.321 319.096 602.845 319.453C600.262 320.09 597.655 320.611 595.024 321.016H595.007L594.064 321.16C594.037 321.16 594.009 321.17 593.973 321.17C593.973 321.18 593.973 321.18 593.964 321.17L592.922 321.315C592.899 321.322 592.874 321.325 592.85 321.325C592.524 321.373 592.188 321.414 591.862 321.45L590.801 321.566L589.986 321.655C589.963 321.664 589.938 321.667 589.913 321.665C589.668 321.684 589.424 321.714 589.18 321.732H589.144L588.509 321.791C585.983 322.003 583.444 322.099 580.87 322.099C578.091 322.099 575.325 321.984 572.596 321.732H572.574L570.826 321.559C570.672 321.539 570.527 321.53 570.373 321.51C570.346 321.51 570.31 321.5 570.282 321.5C570.236 321.49 570.191 321.49 570.137 321.48C570.113 321.481 570.088 321.478 570.065 321.471C569.865 321.452 569.666 321.422 569.457 321.403L568.778 321.314C568.551 321.285 568.324 321.246 568.098 321.217C568.043 321.207 567.998 321.207 567.944 321.198C567.78 321.178 567.618 321.15 567.454 321.121L567.219 321.092C567.055 321.064 566.901 321.044 566.738 321.015H566.729C561.757 320.253 556.848 319.076 552.049 317.494C551.797 317.404 551.544 317.33 551.291 317.243C552.461 311.434 554.87 305.989 558.331 301.328C561.792 296.668 566.213 292.917 571.253 290.366C570.006 289.101 569.145 287.468 568.779 285.677C568.544 284.522 568.525 283.329 568.724 282.167C568.923 281.005 569.336 279.896 569.939 278.904C571.115 276.982 572.96 275.636 575.068 275.161L588.493 272.171C590.655 271.722 592.896 272.2 594.729 273.501C596.562 274.801 597.838 276.82 598.281 279.117C598.417 279.821 598.478 280.539 598.462 281.258C611.393 290.425 620.7 299.927 626.581 310.018Z" fill="#00664E"/>
<path d="M641.159 230.024C636.586 224.346 634.412 216.813 630.756 210.366C627.099 203.919 620.738 198.148 614.016 199.649C609.384 200.683 605.803 205.036 603.993 209.888C602.184 214.74 601.841 220.092 601.524 225.334C601.636 214.561 594.968 204.116 585.784 200.675C576.6 197.235 565.61 201.073 559.843 209.732C557.324 207.247 554.037 205.832 550.604 205.755C547.171 205.679 543.831 206.946 541.217 209.316C536.054 214.228 534.912 223.573 538.708 229.841C542.504 236.109 550.726 238.44 556.759 234.965L558.892 237.054C557.691 241.524 560.019 246.804 563.933 248.487C567.106 249.852 571.586 249.625 572.776 253.171C573.606 255.648 572.055 258.293 570.405 260.196C568.755 262.1 566.797 264.066 566.598 266.7C566.299 270.675 570.157 273.459 573.665 274.298C582.122 276.32 591.506 272.15 596.38 264.205C596.474 264.052 596.576 263.898 596.687 263.745C599.422 260.021 601.415 255.744 602.544 251.173C603.674 246.602 603.916 241.834 603.256 237.16C602.982 235.323 603.256 233.958 604.448 233.523C609.586 231.64 623.989 235.585 628.35 239.154C632.711 242.723 636.2 247.438 640.394 251.235C644.589 255.032 649.943 257.96 655.275 256.925C659.544 256.098 663.177 252.801 665.619 248.817C668.062 244.833 669.469 240.197 670.728 235.585C661.281 241.391 648.359 238.96 641.159 230.024Z" fill="#2F2E41"/>
<path d="M88.0202 167.428C88.0202 169.58 88.0868 171.732 88.2283 173.863C88.3782 176.413 88.6359 178.944 88.9863 181.458C90.1599 189.923 92.4029 198.179 95.6545 206.004L96.1531 207.17L96.4058 207.754C96.49 207.949 96.5802 208.144 96.6635 208.33C96.7798 208.587 96.8884 208.835 97.0005 209.082C97.142 209.393 97.2835 209.702 97.4325 210.012C97.4494 210.047 97.4654 210.092 97.4907 210.136C97.6153 210.405 97.7315 210.658 97.8646 210.924C97.8894 210.982 97.9175 211.038 97.9488 211.093C98.0904 211.394 98.2403 211.703 98.3894 212.005C98.5578 212.323 98.7136 212.651 98.8796 212.97C99.2788 213.758 99.694 214.536 100.119 215.315C100.243 215.546 100.371 215.775 100.501 216.006C100.617 216.218 100.733 216.431 100.858 216.643C100.942 216.785 101.026 216.936 101.111 217.077C101.244 217.317 101.377 217.546 101.518 217.786C101.826 218.308 102.142 218.83 102.45 219.352H102.458C102.6 219.592 102.749 219.83 102.899 220.061V220.069C103.339 220.778 103.797 221.485 104.254 222.185C104.256 222.184 104.258 222.184 104.26 222.185C104.261 222.187 104.261 222.189 104.26 222.191C104.626 222.758 105.008 223.307 105.383 223.855V223.864C105.635 224.21 105.873 224.564 106.123 224.909C106.323 225.192 106.531 225.485 106.738 225.768C106.779 225.83 106.83 225.883 106.871 225.947V225.956C106.929 226.036 106.987 226.107 107.045 226.187C107.927 227.391 108.836 228.568 109.773 229.719L109.923 229.904C109.972 229.966 110.03 230.028 110.081 230.099C110.165 230.197 110.239 230.294 110.322 230.391C110.404 230.489 110.48 230.586 110.563 230.684C115.446 236.54 120.983 241.739 127.051 246.166C127.858 246.758 128.681 247.331 129.504 247.892C129.712 248.034 129.92 248.175 130.127 248.308C130.185 248.352 130.252 248.398 130.31 248.441C130.426 248.511 130.535 248.582 130.647 248.662C130.759 248.742 130.863 248.804 130.979 248.875C131.42 249.167 131.869 249.45 132.318 249.734C132.425 249.804 132.542 249.875 132.654 249.946C132.767 250.017 132.879 250.079 132.991 250.15C132.991 250.159 132.991 250.159 133 250.159H133.008V250.168H133.017C133.574 250.513 134.139 250.849 134.713 251.176C135.02 251.356 135.336 251.535 135.653 251.707C136.368 252.123 137.092 252.521 137.815 252.903C138.073 253.035 138.339 253.172 138.597 253.31C138.813 253.415 139.029 253.531 139.245 253.637C139.312 253.672 139.37 253.699 139.428 253.735C139.611 253.824 139.785 253.914 139.969 254.004C140.168 254.101 140.368 254.198 140.558 254.296C140.783 254.402 140.999 254.508 141.224 254.606C142.055 255.004 142.895 255.385 143.735 255.748C146.744 257.061 149.82 258.196 152.947 259.147C153.089 259.191 153.238 259.237 153.388 259.28C154.726 259.678 156.074 260.041 157.431 260.368C159.8 260.952 162.192 261.431 164.606 261.803H164.623L165.488 261.936C165.513 261.936 165.537 261.945 165.572 261.945C165.572 261.954 165.572 261.954 165.58 261.945L166.536 262.077C166.558 262.084 166.58 262.087 166.603 262.086C166.902 262.13 167.21 262.166 167.509 262.201L168.482 262.307L169.23 262.387C169.251 262.395 169.274 262.398 169.296 262.396C169.521 262.414 169.745 262.44 169.97 262.458H170.003L170.585 262.511C172.905 262.705 175.233 262.794 177.594 262.794C180.147 262.794 182.683 262.688 185.186 262.458H185.211L186.816 262.298C186.957 262.28 187.09 262.271 187.232 262.254C187.257 262.254 187.29 262.245 187.316 262.245C187.357 262.236 187.4 262.236 187.449 262.227C187.472 262.228 187.494 262.225 187.516 262.218C187.698 262.2 187.881 262.174 188.072 262.156L188.696 262.077C188.904 262.05 189.112 262.015 189.319 261.987C189.369 261.978 189.411 261.978 189.46 261.969C189.61 261.951 189.759 261.925 189.909 261.898L190.126 261.871C190.276 261.844 190.416 261.827 190.566 261.8H190.575C195.137 261.102 199.641 260.023 204.044 258.572C204.277 258.492 204.51 258.422 204.742 258.342C204.751 258.342 204.759 258.333 204.768 258.333C204.834 258.306 204.909 258.289 204.976 258.262C205.599 258.05 206.215 257.828 206.829 257.598C207.677 257.297 208.513 256.971 209.356 256.634C209.58 256.536 209.804 256.448 210.029 256.35C210.487 256.165 210.936 255.97 211.385 255.775C212.149 255.447 212.914 255.102 213.671 254.748C214.378 254.412 215.076 254.075 215.777 253.721C215.794 253.712 215.818 253.712 215.835 253.694C215.993 253.615 216.151 253.535 216.301 253.455H216.309C220.138 251.498 223.831 249.253 227.36 246.736C228.491 245.931 229.605 245.099 230.702 244.24C231.583 243.54 232.448 242.832 233.313 242.106C237.579 238.494 241.528 234.476 245.111 230.103V230.094C245.369 229.793 245.61 229.484 245.859 229.174C245.901 229.13 245.934 229.084 245.967 229.05C246.126 228.846 246.275 228.652 246.433 228.457V228.448C246.641 228.192 246.849 227.926 247.048 227.66C247.098 227.598 247.14 227.545 247.181 227.491V227.482C247.349 227.27 247.505 227.057 247.671 226.836C247.755 226.73 247.829 226.623 247.912 226.518V226.509C248.402 225.854 248.876 225.199 249.351 224.526C249.475 224.347 249.603 224.167 249.733 223.977C250.332 223.118 250.912 222.242 251.479 221.366V221.357C251.695 221.03 251.9 220.694 252.119 220.365L252.742 219.357C252.95 219.002 253.164 218.657 253.374 218.303L253.399 218.25C253.607 217.914 253.815 217.56 254.014 217.214C254.173 216.931 254.33 216.657 254.488 216.382C254.588 216.197 254.696 216.01 254.796 215.816C254.835 215.756 254.871 215.694 254.904 215.63L255.602 214.329C255.876 213.824 256.143 213.311 256.409 212.797C256.508 212.585 256.617 212.372 256.725 212.16C256.766 212.089 256.8 212.018 256.832 211.947C256.957 211.7 257.085 211.443 257.198 211.186C257.311 210.93 257.451 210.681 257.572 210.425C257.693 210.168 257.813 209.92 257.929 209.663C258.021 209.469 258.103 209.274 258.195 209.079C258.202 209.063 258.21 209.048 258.221 209.035C258.262 208.937 258.305 208.849 258.337 208.76C258.347 208.747 258.355 208.732 258.362 208.717C258.454 208.522 258.536 208.318 258.628 208.124C258.744 207.867 258.853 207.602 258.965 207.345C259.04 207.165 259.123 206.986 259.198 206.796C259.305 206.539 259.422 206.282 259.522 206.017C259.638 205.748 259.747 205.486 259.855 205.21C259.886 205.143 259.914 205.076 259.939 205.006C259.997 204.882 260.038 204.759 260.089 204.634C260.222 204.307 260.355 203.97 260.48 203.642C260.629 203.27 260.771 202.89 260.901 202.518C261.034 202.173 261.158 201.818 261.283 201.464L261.333 201.34C263.27 195.908 264.739 190.3 265.723 184.584V184.575C266.277 181.311 266.674 178.019 266.912 174.712C266.92 174.526 266.937 174.353 266.946 174.174C267.096 171.932 267.162 169.69 267.162 167.429C267.162 166.428 267.145 165.437 267.121 164.445C266.54 143.711 259.595 123.751 247.349 107.617C247.082 107.263 246.816 106.909 246.542 106.555C246.267 106.2 245.985 105.855 245.71 105.51C236.596 94.1461 225.1 85.2213 212.151 79.455C199.202 73.6887 185.161 71.2423 171.161 72.313C157.161 73.3837 143.593 77.9416 131.551 85.6191C119.509 93.2966 109.33 103.879 101.834 116.513C101.427 117.204 101.02 117.903 100.629 118.602C100.238 119.302 99.8473 120.018 99.4649 120.736C91.9334 134.99 87.9877 151.074 88.0101 167.429L88.0202 167.428Z" fill="#F2F2F2"/>
<path d="M142.351 115.104C142.286 115.091 142.22 115.081 142.155 115.069C142.43 114.887 142.689 114.68 142.929 114.448L142.351 115.104Z" fill="white"/>
<path d="M172.876 192.97H193.765L192.875 221.773L169.233 219.802L172.876 192.97Z" fill="#9E616A"/>
<path d="M135.662 250.922C136.477 251.401 137.301 251.859 138.125 252.297C138.419 252.45 138.722 252.603 139.016 252.766C139.263 252.888 139.509 253.021 139.756 253.143C139.832 253.183 139.898 253.215 139.964 253.255C140.173 253.357 140.372 253.459 140.58 253.561C140.807 253.673 141.034 253.785 141.253 253.897C141.506 254.019 141.759 254.142 142.011 254.256C142.959 254.714 143.917 255.153 144.875 255.569C148.304 257.08 151.809 258.386 155.375 259.481C155.536 259.532 155.707 259.583 155.88 259.633C157.406 260.092 158.941 260.51 160.486 260.889C163.187 261.561 165.913 262.111 168.664 262.539H168.683L169.668 262.691C169.697 262.691 169.725 262.701 169.763 262.701C169.763 262.711 169.763 262.711 169.773 262.701L170.862 262.853C170.887 262.861 170.913 262.864 170.938 262.863C171.279 262.914 171.63 262.953 171.971 262.996L173.079 263.118L173.933 263.207C173.957 263.216 173.983 263.22 174.008 263.217C174.261 263.238 174.52 263.268 174.776 263.289H174.814L175.477 263.35C178.121 263.574 180.774 263.676 183.466 263.676C186.375 263.676 189.266 263.554 192.118 263.288H192.147L193.975 263.109C194.136 263.088 194.288 263.078 194.449 263.058C194.478 263.058 194.516 263.048 194.545 263.048C194.592 263.038 194.64 263.038 194.696 263.027C194.722 263.028 194.747 263.025 194.772 263.017C194.981 262.997 195.193 262.966 195.407 262.947L196.118 262.857C196.355 262.826 196.592 262.785 196.829 262.755C196.886 262.745 196.933 262.745 196.99 262.734C197.158 262.713 197.327 262.683 197.502 262.652L197.749 262.622C197.917 262.591 198.08 262.571 198.254 262.54H198.263C203.463 261.733 208.594 260.487 213.609 258.815C213.875 258.726 214.14 258.642 214.405 258.547C213.196 252.432 210.685 246.693 207.065 241.774C203.446 236.854 198.815 232.884 193.528 230.168C194.834 228.829 195.735 227.105 196.115 225.218C196.612 222.757 196.177 220.187 194.903 218.067C194.297 217.065 193.512 216.2 192.591 215.522C191.671 214.844 190.633 214.366 189.539 214.116L175.495 210.959C173.225 210.492 170.874 211.002 168.956 212.376C167.038 213.751 165.709 215.878 165.261 218.292C165.117 219.036 165.054 219.795 165.071 220.554C151.544 230.231 141.812 240.268 135.662 250.922Z" fill="#00664E"/>
<path d="M179.115 209.348C195.68 209.348 209.108 195.052 209.108 177.417C209.108 159.782 195.68 145.486 179.115 145.486C162.55 145.486 149.122 159.782 149.122 177.417C149.122 195.052 162.55 209.348 179.115 209.348Z" fill="#9E616A"/>
<path d="M174.856 207.642C167.347 209.801 159.068 206.93 153.209 201.485C147.351 196.039 143.684 188.325 141.572 180.355C140.025 174.519 139.292 168.04 141.733 162.561C144.174 157.081 150.745 153.385 155.812 156.152C152.686 152.274 154.247 145.859 157.899 142.542C161.551 139.225 166.565 138.273 171.341 137.753C178.272 136.998 185.431 136.914 192.027 139.304C198.623 141.695 204.615 146.921 206.683 154.01C208.791 155.055 211.165 155.326 213.433 154.781C215.702 154.236 217.736 152.905 219.218 150.997C219.601 153.188 219.294 155.453 218.346 157.44C217.397 159.427 215.86 161.026 213.971 161.989L224.079 158.501C225.816 162.417 222.771 167.264 218.877 168.518C214.982 169.773 210.779 168.402 207.085 166.59C203.391 164.777 199.809 162.487 195.795 161.781C191.78 161.074 187.065 162.447 185.209 166.301C184.236 168.319 184.186 170.684 183.621 172.871C183.057 175.058 181.627 177.326 179.502 177.506C178.16 177.619 176.845 176.857 175.507 177.013C174.686 177.186 173.93 177.61 173.331 178.233C172.733 178.855 172.318 179.65 172.138 180.52C171.805 182.266 171.801 184.064 172.126 185.811L174.693 206.704L174.856 207.642Z" fill="#2F2E41"/>
<path d="M8.85037 286.488C10.0273 286.275 11.2342 286.345 12.3822 286.694C13.5302 287.044 14.5899 287.663 15.4832 288.506L15.5321 288.553L15.5776 288.51C16.4298 287.713 17.432 287.118 18.5173 286.766C19.6025 286.414 20.7459 286.312 21.871 286.468L22.1978 286.519C23.6157 286.779 24.9411 287.443 26.0336 288.44C27.126 289.437 27.9448 290.73 28.4033 292.182C28.8618 293.634 28.9428 295.191 28.6379 296.689C28.3329 298.186 27.6533 299.567 26.6711 300.686L26.4319 300.948L26.3678 301.007L16.4577 311.457C16.229 311.697 15.9261 311.842 15.6051 311.863C15.2841 311.884 14.9667 311.781 14.7117 311.572L14.5871 311.457L4.62724 300.949C3.57156 299.856 2.82075 298.473 2.45797 296.953C2.0952 295.434 2.13462 293.837 2.57187 292.34C3.00912 290.842 3.82713 289.503 4.93529 288.47C6.04346 287.438 7.39851 286.752 8.85037 286.488Z" fill="#00664E"/>
<path d="M460.911 195.868C459.892 195.869 458.912 195.455 458.172 194.711C457.431 193.966 456.985 192.948 456.927 191.866L456.917 191.614V178.216L469.482 187.135L469.634 187.224C469.816 187.322 470.017 187.372 470.221 187.372C470.424 187.372 470.625 187.322 470.807 187.224L470.959 187.135L483.524 178.216V191.614C483.525 192.698 483.136 193.742 482.437 194.53C481.738 195.319 480.782 195.792 479.765 195.854L479.53 195.868H460.911ZM457.51 175.231C457.843 174.654 458.301 174.17 458.846 173.82C459.392 173.47 460.008 173.264 460.643 173.221L460.911 173.208H479.529C480.21 173.208 480.881 173.395 481.476 173.749C482.072 174.103 482.572 174.613 482.929 175.231L470.217 184.249L457.51 175.231Z" fill="#00664E"/>
<path d="M141.879 343.353C143.291 343.353 144.644 343.95 145.642 345.012C146.64 346.075 147.201 347.516 147.201 349.018V360.349C147.201 361.851 146.64 363.292 145.642 364.355C144.644 365.417 143.291 366.014 141.879 366.014H135.594L129.26 370.061C129.069 370.183 128.852 370.252 128.63 370.262C128.407 370.272 128.186 370.222 127.987 370.117C127.787 370.012 127.615 369.856 127.487 369.662C127.359 369.468 127.279 369.244 127.253 369.008L127.246 368.847V366.014H125.915C124.55 366.014 123.237 365.456 122.248 364.454C121.259 363.453 120.669 362.085 120.6 360.634L120.594 360.349V349.018C120.594 347.516 121.154 346.075 122.152 345.012C123.15 343.95 124.504 343.353 125.915 343.353H141.879ZM136.558 356.099H128.576C128.223 356.099 127.884 356.249 127.635 356.514C127.385 356.78 127.245 357.14 127.245 357.516C127.245 357.891 127.385 358.252 127.635 358.517C127.884 358.783 128.223 358.932 128.576 358.932H136.558C136.911 358.932 137.249 358.783 137.499 358.517C137.748 358.252 137.888 357.891 137.888 357.516C137.888 357.14 137.748 356.78 137.499 356.514C137.249 356.249 136.911 356.099 136.558 356.099ZM139.219 350.437H128.576C128.223 350.437 127.884 350.586 127.635 350.852C127.385 351.117 127.245 351.478 127.245 351.853C127.245 352.229 127.385 352.589 127.635 352.855C127.884 353.12 128.223 353.269 128.576 353.269H139.219C139.571 353.269 139.91 353.12 140.159 352.855C140.409 352.589 140.549 352.229 140.549 351.853C140.549 351.478 140.409 351.117 140.159 350.852C139.91 350.586 139.571 350.437 139.219 350.437Z" fill="#00664E"/>
<path d="M128.531 299.117C132.915 299.117 136.469 295.334 136.469 290.667C136.469 286 132.915 282.216 128.531 282.216C124.147 282.216 120.594 286 120.594 290.667C120.594 295.334 124.147 299.117 128.531 299.117Z" fill="#E6E6E6"/>
</g>
<defs>
<clipPath id="clip0_302_9160">
<rect width="672.938" height="531" fill="white"/>
</clipPath>
</defs>
</svg>
