<svg width="25" height="24" viewBox="0 0 25 24" fill="none" xmlns="http://www.w3.org/2000/svg">
<ellipse cx="12.5" cy="12" rx="12.5" ry="12" fill="#00664E"/>
<path d="M12.5667 11.5833C10.675 11.0917 10.0667 10.5833 10.0667 9.79167C10.0667 8.88333 10.9083 8.25 12.3167 8.25C13.8 8.25 14.35 8.95833 14.4 10H16.2417C16.1833 8.56667 15.3083 7.25 13.5667 6.825V5H11.0667V6.8C9.45 7.15 8.15 8.2 8.15 9.80833C8.15 11.7333 9.74167 12.6917 12.0667 13.25C14.15 13.75 14.5667 14.4833 14.5667 15.2583C14.5667 15.8333 14.1583 16.75 12.3167 16.75C10.6 16.75 9.925 15.9833 9.83333 15H8C8.1 16.825 9.46667 17.85 11.0667 18.1917V20H13.5667V18.2083C15.1917 17.9 16.4833 16.9583 16.4833 15.25C16.4833 12.8833 14.4583 12.075 12.5667 11.5833Z" fill="white"/>
</svg>
