<svg width="25" height="24" viewBox="0 0 25 24" fill="none" xmlns="http://www.w3.org/2000/svg">
<ellipse cx="12.5" cy="12" rx="12.5" ry="12" fill="#00664E"/>
<g clip-path="url(#clip0_745_5992)">
<path d="M12.7415 4.25806C12.8806 4.25806 13.0197 4.2883 13.1467 4.34576L18.8413 6.76209C19.5066 7.04334 20.0026 7.69959 19.9995 8.49193C19.9844 11.4919 18.7505 16.9808 13.5399 19.4758C13.0348 19.7177 12.4481 19.7177 11.9431 19.4758C6.7324 16.9808 5.49853 11.4919 5.48341 8.49193C5.48039 7.69959 5.97636 7.04334 6.64168 6.76209L12.3393 4.34576C12.4633 4.2883 12.6024 4.25806 12.7415 4.25806ZM12.7415 6.27822V17.7097C16.9149 15.6895 18.0368 11.2167 18.0641 8.53427L12.7415 6.27822Z" fill="white"/>
</g>
<defs>
<clipPath id="clip0_745_5992">
<path d="M5 4.25806H20.4839V19.7419H5V4.25806Z" fill="white"/>
</clipPath>
</defs>
</svg>
